<?xml version="1.0" encoding="utf-8"?>
<!-- Generator: Adobe Illustrator 18.1.1, SVG Export Plug-In . SVG Version: 6.00 Build 0)  -->
<svg version="1.1" id="Layer_1" xmlns="http://www.w3.org/2000/svg" xmlns:xlink="http://www.w3.org/1999/xlink" x="0px" y="0px"
	 viewBox="0 0 864 864" enable-background="new 0 0 864 864" xml:space="preserve">
<rect x="0" y="0" fill="#35BEBC" width="864" height="864"/>
<path fill="#FFFFFF" d="M75.7,168.5"/>
<g>
	<path fill="#FFFFFF" d="M687.4,457.6h12.5c2.1,0,3.8,1.7,3.8,3.8c0,0.4,0,0.8-0.2,1.2v0c-5.8,14.2-18.9,22.8-35.7,22.8
		c-23.3,0-39.9-18.1-39.9-40.5c0-22.4,16.7-40.8,39.9-40.8c16.5,0,29.5,8.4,35.4,22.3l0,0c0.2,0.5,0.4,1.1,0.4,1.6
		c0,2.1-1.7,3.8-3.8,3.8h-12.4l-1.3,0c-1.3,0-2.5-0.7-3.2-1.7l0,0c-3.1-4.2-8.6-8-15-8c-11,0-19.8,10.2-19.8,22.7
		c0,12.2,8.9,22.4,19.8,22.4c6.4,0,12-3.6,15-7.8v0c0.7-1.1,1.9-1.9,3.3-1.9H687.4z"/>
	<path fill="#FFFFFF" d="M229.9,483.3h-4.4c-2.1,0-3.8-1.7-3.8-3.8V476c-3.7,5.2-12.6,8.7-23.4,8.7c-16.4,0-31.2-8.2-31.2-25.1
		c0-17.4,14.6-21.9,31.7-23.4c12.9-1.2,22.1-2.7,22.1-9c0-4-5.2-7.6-14.1-7.6c-6.2,0-15,2.7-17,9.3l0,0c-0.5,1.6-1.9,2.7-3.7,2.7
		l-1.9,0h-9h-1.4c-2.1,0-3.8-1.7-3.8-3.8c0-0.3,0.1-0.8,0.1-0.8c2.7-14.5,17.9-23.4,36.3-23.4c31.4,0,33.8,20.5,33.8,26.6v49
		c0,2.1-1.7,3.8-3.8,3.8L229.9,483.3z M221.6,446.1c-3.7,2.7-10.7,4.1-18.8,5c-9.7,1.1-15.8,3.1-15.8,8.8c0,4.4,5.1,7.4,13.1,7.4
		c11.9,0,21.5-4,21.5-14V446.1z"/>
	<path fill="#FFFFFF" d="M284.1,483.4c-25.2,1.3-34.2-12.6-34.2-32.7v-67.9c0-2.1,1.7-3.8,3.8-3.8l12,0c2.1,0,3.8,1.7,3.8,3.8V406
		l14.6,0c2.1,0,3.8,1.7,3.8,3.8v7.9v2c0,2.1-1.7,3.8-3.8,3.8h-3.5l-11.1,0v27.3c0,9.7,3.9,14,14.6,14.3l0,0c2.1,0,3.8,1.7,3.8,3.8
		l0,10.6C287.9,481.7,286.2,483.4,284.1,483.4L284.1,483.4z"/>
	<path fill="#FFFFFF" d="M356.4,457.6h12.5c2.1,0,3.8,1.7,3.8,3.8c0,0.4,0,0.8-0.2,1.2v0c-5.7,14.2-18.9,22.8-35.7,22.8
		c-23.3,0-39.9-18.1-39.9-40.5c0-22.4,16.7-40.8,39.9-40.8c16.5,0,29.5,8.4,35.4,22.3l0,0c0.2,0.5,0.4,1.1,0.4,1.6
		c0,2.1-1.7,3.8-3.8,3.8h-12.4l-1.3,0c-1.3,0-2.5-0.7-3.2-1.7l0,0c-3.1-4.2-8.6-8-15-8c-11,0-19.8,10.2-19.8,22.7
		c0,12.2,8.9,22.4,19.8,22.4c6.4,0,12-3.6,15-7.8v0c0.7-1.1,1.9-1.9,3.3-1.9H356.4z"/>
	<path fill="#FFFFFF" d="M142,483.3c-2.1,0-3.8-1.7-3.8-3.8v-41.4c0-4.5-1.5-14.7-14.4-14.7c-8.9,0-15,6-15,14.7v41.4
		c0,2.1-1.7,3.8-3.8,3.8h-12c-2.1,0-3.8-1.7-3.8-3.8v-96.7c0-2.1,1.7-3.8,3.8-3.8H105c2.1,0,3.7,1.7,3.7,3.8V410
		c4.9-3.8,10.9-6,17.6-6c18.9,0,31.4,13.7,31.4,34.1l0,41.4c0,2.1-1.7,3.8-3.8,3.8L142,483.3z"/>
	<path fill="#FFFFFF" d="M436.5,483.3c-2.1,0-3.8-1.7-3.8-3.8v-41.4c0-4.5-1.5-14.7-14.4-14.7c-8.9,0-15,6-15,14.7v41.4
		c0,2.1-1.7,3.8-3.8,3.8h-12c-2.1,0-3.8-1.7-3.8-3.8v-96.7c0-2.1,1.7-3.8,3.8-3.8h12.1c2.1,0,3.7,1.7,3.7,3.8V410
		c4.9-3.8,10.9-6,17.6-6c18.9,0,31.4,13.7,31.4,34.1v41.4c0,2.1-1.7,3.8-3.8,3.8L436.5,483.3z"/>
	<path fill="#FFFFFF" d="M504.3,404.3c-8.9,0-17.6,3.3-22.5,9l0-30.5c0-2.1-1.7-3.8-3.8-3.8l-12.7,0c-2.1,0-3.3,1.7-3.3,3.8v96.7
		c0,2.1,0.6,5.8,2.7,5.8h13.3c2.1,0,3-3.7,3-5.8V475c8,6.3,13.3,9.9,22.7,9.9c20.3,0,37.1-17.4,37.1-40.2
		C540.8,421.8,524.5,404.3,504.3,404.3z M501.2,466.6c-11,0-19.8-9.8-19.8-21.8c0-12.3,8.9-22.2,19.8-22.2c11,0,19.8,9.6,19.8,22.2
		C521,457.2,512.2,466.6,501.2,466.6z"/>
	<path fill="#FFFFFF" d="M615.4,483.3c2.1,0,3.8-1.7,3.8-3.8l0-69.7c0-2.1-1.7-3.8-3.8-3.8l-12,0c-2.1,0-3.8,1.7-3.8,3.8v41.3
		c0,8.6-6.2,15.2-15,15.2c-12.9,0-14.4-10.8-14.4-15.2v-41.3c0-2.1-1.7-3.8-3.8-3.8l-13.2,0c-2.1,0-3.8,1.7-3.8,3.8l0,41.3
		c0,20.3,12.2,33.9,30.6,33.9c8.1,0,14.9-3.3,19.8-8.9v3.3c0,2.1,1.7,3.8,3.8,3.8H615.4z"/>
	<path fill="#FFFFFF" d="M734.6,463.3v16.2c0,2.1-1.7,3.8-3.8,3.8l-13.2,0c-2.1,0-3.8-1.7-3.8-3.8l0-96.7c0-2.1,1.7-3.8,3.8-3.8
		h13.2c2.1,0,3.8,1.7,3.8,3.8v51.2l24-27l0,0c0.7-0.6,1.6-1,2.6-1h0.7h16c2.1,0,3.8,1.7,3.8,3.8c0,0.9-0.3,1.8-0.9,2.4l0,0
		l-22.8,23.9l26.6,41.1l0.2,0.3c0.3,0.6,0.5,1.2,0.5,2c0,2.1-1.7,3.8-3.8,3.8l-16,0c-1.4,0-2.6-0.7-3.3-1.8l0,0l-15.1-25.9l-0.2-0.4
		c-0.7-1.2-1.9-2-3.3-2c-1.1,0-2.1,0.5-2.8,1.3l-2.3,2.4l-2.8,3c-0.7,0.7-1.1,1.6-1.1,2.7L734.6,463.3z"/>
</g>
</svg>
