<svg id="Layer_1" data-name="Layer 1" xmlns="http://www.w3.org/2000/svg" viewBox="0 0 66.3 103.32"><title>hb-logo-icon</title><path d="M83.56,75.64H95.85l.08-.18c-.24-.2-.47-.41-.72-.6A24.36,24.36,0,0,1,86.88,63c-.26-.79-.63-1.05-1.42-1-1.42.17-2.2-.34-2.28-1.92-.15-2.82-.42-5.63-.63-8.45-.07-.93-.15-1.86-.18-2.79A1.6,1.6,0,0,1,84.13,47a18.93,18.93,0,0,1,2.08,0,.93.93,0,0,0,1.06-.7,24.61,24.61,0,0,1,15.22-14.67c.52-.18.74-.44.68-1a4.1,4.1,0,0,1,0-.54c0-1.28.51-1.8,1.81-1.81,2.62,0,5.24,0,7.86,0,1.17,0,2.35,0,3.52,0s1.93.59,1.85,1.88c-.06,1,.31,1.43,1.24,1.79a24.44,24.44,0,0,1,14.3,14.19c.26.63.55.91,1.24.84a13.08,13.08,0,0,1,1.81,0c1.32.05,2,.68,1.89,2-.17,2.88-.39,5.76-.6,8.64-.07,1-.13,1.92-.26,2.87A1.58,1.58,0,0,1,136,62c-1.45,0-1.46,0-2,1.42a24.81,24.81,0,0,1-8.29,11.47c-.21.16-.4.34-.81.7h12.7c-.12,9.61-3.81,17.28-11.42,22.92a26.64,26.64,0,0,1-30.1.9C86.2,93.09,83,82.22,83.56,75.64Zm40.38-18.52A12.92,12.92,0,1,0,111,70.05,13,13,0,0,0,123.95,57.12ZM97.08,76.41c3.89,4.67,8.75,7.34,15,6.84,5.42-.44,10.52-4.38,11.87-6.94C115,81.43,106.06,81.42,97.08,76.41Zm14-35.77a4.38,4.38,0,0,0,4.27-4.36,4.32,4.32,0,0,0-8.65.09A4.43,4.43,0,0,0,111.07,40.63Z" transform="translate(-82.37 -0.35)" style="fill:#fff"/><path d="M142.37,13a6.31,6.31,0,0,1,0-12.61,6.26,6.26,0,0,1,6.34,6.25A6.19,6.19,0,0,1,142.37,13Z" transform="translate(-82.37 -0.35)" style="fill:#fff"/><path d="M139,18.9a4.59,4.59,0,1,1-9.19,0,4.59,4.59,0,1,1,9.19,0Z" transform="translate(-82.37 -0.35)" style="fill:#fff"/><path d="M141.41,31.37A2.46,2.46,0,0,1,144,33.91a2.41,2.41,0,0,1-2.54,2.54,2.54,2.54,0,1,1,0-5.08Z" transform="translate(-82.37 -0.35)" style="fill:#fff"/><path d="M115.51,46.7c1,.73,2.09,1.45,3.1,2.22a1,1,0,0,1,.23.73q0,7.45,0,14.89a1.13,1.13,0,0,1-.27.8c-1,.76-2,1.45-3.27,2.33,0-.63-.05-.94-.05-1.25,0-2.11,0-4.21,0-6.32,0-.76-.18-1.08-1-1.07-2.2,0-4.39,0-6.59,0-.73,0-1,.23-1,1,0,2.14,0,4.27,0,6.41,0,.29,0,.58,0,1a9.09,9.09,0,0,1-3.39-2.22,1.32,1.32,0,0,1-.21-.84c0-4.84,0-9.69,0-14.53a1.54,1.54,0,0,1,.48-1.08c.92-.73,1.93-1.36,2.9-2l.22.21q0,3.6,0,7.2c0,1.28,0,1.29,1.29,1.29h6c1.21,0,1.21,0,1.21-1.18q0-3.65,0-7.3Z" transform="translate(-82.37 -0.35)" style="fill:#fff"/><path d="M108.74,36.3A2.31,2.31,0,0,1,111.06,34a2.38,2.38,0,0,1,2.29,2.31,2.27,2.27,0,0,1-2.3,2.34A2.21,2.21,0,0,1,108.74,36.3Z" transform="translate(-82.37 -0.35)" style="fill:#fff"/></svg>